<?xml version="1.0" encoding="UTF-8" standalone="no"?>
<!-- Created with Inkscape (http://www.inkscape.org/) -->

<svg
   xmlns:dc="http://purl.org/dc/elements/1.1/"
   xmlns:cc="http://creativecommons.org/ns#"
   xmlns:rdf="http://www.w3.org/1999/02/22-rdf-syntax-ns#"
   xmlns:svg="http://www.w3.org/2000/svg"
   xmlns="http://www.w3.org/2000/svg"
   xmlns:sodipodi="http://sodipodi.sourceforge.net/DTD/sodipodi-0.dtd"
   xmlns:inkscape="http://www.inkscape.org/namespaces/inkscape"
   width="32"
   height="32"
   viewBox="0 0 8.4666668 8.4666668"
   version="1.1"
   id="svg5"
   xml:space="preserve"
   inkscape:version="0.92.2 5c3e80d, 2017-08-06"
   sodipodi:docname="icewm\.svg"><metadata
     id="metadata21"><rdf:RDF><cc:Work
         rdf:about=""><dc:format>image/svg+xml</dc:format><dc:type
           rdf:resource="http://purl.org/dc/dcmitype/StillImage" /><dc:title></dc:title></cc:Work></rdf:RDF></metadata><sodipodi:namedview
     id="namedview7"
     pagecolor="#ffffff"
     bordercolor="#666666"
     borderopacity="1.0"
     inkscape:pageshadow="2"
     inkscape:pageopacity="0"
     inkscape:pagecheckerboard="true"
     inkscape:deskcolor="#d1d1d1"
     inkscape:document-units="mm"
     showgrid="false"
     showborder="true"
     inkscape:showpageshadow="true"
     borderlayer="false"
     inkscape:zoom="16"
     inkscape:cx="-0.8621515"
     inkscape:cy="19.863758"
     inkscape:window-width="1656"
     inkscape:window-height="858"
     inkscape:window-x="2556"
     inkscape:window-y="261"
     inkscape:window-maximized="0"
     inkscape:current-layer="layer1"
     showguides="true"
     inkscape:guide-bbox="true"
     units="px" /><defs
     id="defs2"><inkscape:path-effect
       effect="powerclip"
       id="path-effect4178"
       is_visible="true"
       lpeversion="1"
       inverse="true"
       flatten="false"
       hide_clip="false"
       message="Use fill-rule evenodd on &lt;b&gt;fill and stroke&lt;/b&gt; dialog if no flatten result after convert clip to paths." /><clipPath
       clipPathUnits="userSpaceOnUse"
       id="clipPath4174"><ellipse
         style="display:none;opacity:1;fill:#008000;fill-opacity:1;stroke-width:0.93045199"
         id="ellipse4176"
         cx="33.411034"
         cy="72.276894"
         rx="52.766674"
         ry="105.16649" /><path
         id="lpe_path-effect4178"
         style="opacity:1;fill:#008000;fill-opacity:1;stroke-width:0.93045199"
         class="powerclip"
         d="M 8.9359093,-4.8085251 H 140.66266 V 140.45365 H 8.9359093 Z M 86.177708,72.276894 A 52.766674,105.16649 0 0 0 33.411034,-32.889595 52.766674,105.16649 0 0 0 -19.35564,72.276894 52.766674,105.16649 0 0 0 33.411034,177.44338 52.766674,105.16649 0 0 0 86.177708,72.276894 Z"
         inkscape:connector-curvature="0" /></clipPath></defs><g
     inkscape:label="logo"
     inkscape:groupmode="layer"
     id="layer1"
     transform="translate(-4.5490799,-232.14424)"><circle
       style="fill:#214478;fill-opacity:1;stroke-width:0.06768"
       id="circle3912"
       cx="8.7824135"
       cy="236.37758"
       r="4.2333331" /><circle
       style="fill:#cce0ed;fill-opacity:1;stroke-width:0.06733625"
       id="circle3474"
       cx="8.7824135"
       cy="236.37758"
       r="4.2118378" /><circle
       style="fill:#214478;fill-opacity:1;stroke-width:0.064095"
       id="path3420"
       cx="8.7824135"
       cy="236.37758"
       r="4.0090885" /><path
       style="fill:#91aebd;fill-opacity:1;stroke-width:0.01955885"
       d="m 8.4536715,239.84884 c -0.156334,-0.034 -0.330805,-0.16419 -0.67778,-0.34597 -0.258636,-0.1355 -0.25664,-0.10368 -0.437088,-0.21187 -0.04423,-0.0265 -0.289746,-0.17273 -0.382906,-0.23981 -0.194838,-0.14029 -0.450538,-0.34216 -0.483146,-0.40185 -0.02062,-0.0378 0.396526,0.11662 0.585942,0.0849 0.26687,-0.0446 0.413308,-0.0916 0.555558,-0.1783 0.194322,-0.11841 0.274631,-0.11382 0.601324,0.0344 0.09407,0.0427 0.190566,0.0748 0.214444,0.0713 0.05112,-0.007 0.172306,-0.1596 0.238556,-0.29965 0.07484,-0.15822 0.107137,-0.35018 0.132354,-0.78674 0.0177,-0.30649 0.01837,-0.49244 0.0026,-0.73138 l -0.02113,-0.32041 0.08092,-0.0668 c 0.181961,-0.15029 0.482672,-0.47074 0.575881,-0.61366 0.182737,-0.28021 0.230613,-0.48906 0.169737,-0.74046 -0.02992,-0.12357 -0.0455,-0.12897 -0.124685,-0.20883 -0.10614,-0.10705 -0.154898,-0.17124 -3.38e-4,-0.0695 0.05782,0.0381 0.184367,0.0942 0.337462,0.31874 l 0.130136,0.19091 v 2.21119 2.2112 l -0.04401,0.011 c -0.0242,0.006 -0.209201,0.0334 -0.411104,0.0608 -0.412623,0.0559 -0.841856,0.0645 -1.042753,0.0208 z m -2.024213,-1.23744 -0.04742,-0.0538 0.05379,0.0474 c 0.02958,0.0261 0.0422,0.0459 0.0422,0.0494 0,0.0153 -0.0042,0.007 -0.04857,-0.043 z"
       id="path250"
       sodipodi:nodetypes="csssscsssssscsssssscccssccscsss"
       inkscape:connector-curvature="0" /><path
       style="fill:#000000;stroke-width:0.227373"
       id="path248"
       d=""
       inkscape:connector-curvature="0" /><path
       style="fill:#a3c2d5;fill-opacity:1;stroke-width:0.01955885"
       d="m 6.6403655,238.7689 c -0.0354,-0.008 -0.126775,-0.0724 -0.210597,-0.14739 l -0.148061,-0.13251 0.0417,-0.0707 c 0.121798,-0.20635 0.396466,-0.73994 0.464257,-0.9019 0.06127,-0.14638 0.101252,-0.30201 0.188415,-0.73345 0.123052,-0.60908 0.125153,-0.61445 0.332727,-0.85082 0.319758,-0.3641 0.360312,-0.48521 0.402784,-1.20287 0.0121,-0.20439 0.03839,-0.32825 0.04927,-0.40241 0.0059,-0.0572 0.340501,-0.68213 0.340501,-0.7705 0,-0.0165 0.0073,-0.0423 0.01255,-0.0423 0.0053,0 0.09058,0.0608 0.184829,0.12707 0.09425,0.0663 0.166526,0.12778 0.169047,0.12942 0.0025,0.002 0.01939,0.073 0.03679,0.15835 0.06861,0.3364 0.225188,0.51412 0.654463,0.71286 0.225945,0.1046 0.216743,0.11718 0.244256,0.15131 0.0025,0.003 0.03495,0.0488 0.08549,0.0998 0.07893,0.0796 0.104639,0.10625 0.130851,0.23566 0.03974,0.19621 0.01024,0.45899 -0.172502,0.7392 -0.09344,0.14329 -0.395093,0.46459 -0.57613,0.61367 l -0.08117,0.0668 0.01665,0.19559 c 0.03527,0.41432 0.0095,1.1094 -0.05182,1.39846 -0.05593,0.26358 -0.22845,0.54765 -0.332596,0.54765 -0.02632,0 -0.107066,-0.0298 -0.179428,-0.0663 -0.151451,-0.0763 -0.317334,-0.12935 -0.403985,-0.12928 -0.03301,2e-5 -0.108425,0.0289 -0.16759,0.0641 -0.189467,0.11272 -0.304739,0.15248 -0.576987,0.19905 -0.186201,0.0318 -0.350297,0.0359 -0.453713,0.0113 z"
       id="path1876"
       sodipodi:nodetypes="sscssssscssssssssssscsssscsss"
       inkscape:connector-curvature="0" /><path
       style="fill:#cce0ed;fill-opacity:1;stroke-width:0.01955885"
       d="m 9.8058025,235.14087 c -0.08068,-0.10679 -0.186298,-0.22317 -0.234706,-0.25863 -0.04841,-0.0354 -0.232666,-0.13794 -0.409461,-0.22775 -0.457972,-0.23265 -0.583459,-0.37027 -0.656229,-0.71971 -0.01649,-0.0792 -0.03454,-0.15134 -0.04011,-0.16036 -0.0056,-0.009 -0.0869,-0.0698 -0.180731,-0.13511 l -0.170604,-0.11872 -0.01452,0.0696 c -0.02827,0.13548 -0.315998,0.77093 -0.338763,0.74816 -0.0047,-0.005 0.04154,-0.27295 0.102775,-0.59611 l 0.111333,-0.58754 0.124498,-0.0116 c 0.200088,-0.0187 0.362151,-0.0669 0.767691,-0.22859 0.388622,-0.15491 0.658186,-0.24842 0.671531,-0.23297 0.02192,0.0254 0.237366,0.55528 0.323944,0.79675 l 0.100259,0.27963 -0.0051,0.78858 -0.0051,0.78859 z"
       id="path3297"
       inkscape:connector-curvature="0"
       sodipodi:nodetypes="sccccccscscsscccccs" /></g><g
     inkscape:groupmode="layer"
     id="layer2"
     inkscape:label="effect"
     transform="translate(0,-126.99999)" /></svg>