<?xml version="1.0" encoding="UTF-8" standalone="no"?>
<!-- Created with Inkscape (http://www.inkscape.org/) -->

<svg
   width="135.46666mm"
   height="135.46666mm"
   viewBox="0 0 135.46666 135.46666"
   version="1.1"
   id="svg5"
   xml:space="preserve"
   inkscape:version="1.2-alpha1 (e5315506d, 2022-03-15, custom)"
   sodipodi:docname="icewm-logo.svg"
   xmlns:inkscape="http://www.inkscape.org/namespaces/inkscape"
   xmlns:sodipodi="http://sodipodi.sourceforge.net/DTD/sodipodi-0.dtd"
   xmlns="http://www.w3.org/2000/svg"
   xmlns:svg="http://www.w3.org/2000/svg"><sodipodi:namedview
     id="namedview7"
     pagecolor="#ffffff"
     bordercolor="#666666"
     borderopacity="1.0"
     inkscape:pageshadow="2"
     inkscape:pageopacity="0"
     inkscape:pagecheckerboard="true"
     inkscape:deskcolor="#d1d1d1"
     inkscape:document-units="mm"
     showgrid="false"
     showborder="false"
     inkscape:showpageshadow="false"
     borderlayer="false"
     inkscape:zoom="1"
     inkscape:cx="305.5"
     inkscape:cy="190"
     inkscape:window-width="1600"
     inkscape:window-height="1136"
     inkscape:window-x="0"
     inkscape:window-y="0"
     inkscape:window-maximized="1"
     inkscape:current-layer="layer1" /><defs
     id="defs2"><inkscape:path-effect
       effect="powerclip"
       id="path-effect4178"
       is_visible="true"
       lpeversion="1"
       inverse="true"
       flatten="false"
       hide_clip="false"
       message="Use fill-rule evenodd on &lt;b&gt;fill and stroke&lt;/b&gt; dialog if no flatten result after convert clip to paths." /><clipPath
       clipPathUnits="userSpaceOnUse"
       id="clipPath4174"><ellipse
         style="display:none;opacity:1;fill:#008000;fill-opacity:1;stroke-width:0.930452;-inkscape-stroke:none;stop-color:#000000"
         id="ellipse4176"
         cx="33.411034"
         cy="72.276894"
         rx="52.766674"
         ry="105.16649" /><path
         id="lpe_path-effect4178"
         style="opacity:1;fill:#008000;fill-opacity:1;stroke-width:0.930452;-inkscape-stroke:none;stop-color:#000000"
         class="powerclip"
         d="M 8.9359093,-4.8085251 H 140.66266 V 140.45365 H 8.9359093 Z M 86.177708,72.276894 A 52.766674,105.16649 0 0 0 33.411034,-32.889595 52.766674,105.16649 0 0 0 -19.35564,72.276894 52.766674,105.16649 0 0 0 33.411034,177.44338 52.766674,105.16649 0 0 0 86.177708,72.276894 Z" /></clipPath><filter
       inkscape:collect="always"
       style="color-interpolation-filters:sRGB"
       id="filter4186"
       x="-0.81728838"
       y="-0.73550392"
       width="2.6345768"
       height="2.4710078"><feGaussianBlur
         inkscape:collect="always"
         stdDeviation="41.452441"
         id="feGaussianBlur4188" /></filter></defs><g
     inkscape:label="logo"
     inkscape:groupmode="layer"
     id="layer1"
     transform="translate(-4.5490799,-105.14425)"><circle
       style="fill:#214478;fill-opacity:1;stroke-width:1.08288;-inkscape-stroke:none;stop-color:#000000"
       id="circle3912"
       cx="72.28241"
       cy="172.87758"
       r="67.73333" /><circle
       style="fill:#cce0ed;fill-opacity:1;stroke-width:1.07738;-inkscape-stroke:none;stop-color:#000000"
       id="circle3474"
       cx="72.28241"
       cy="172.87758"
       r="67.389404" /><circle
       style="fill:#214478;fill-opacity:1;stroke-width:1.02552;-inkscape-stroke:none;stop-color:#000000"
       id="path3420"
       cx="72.28241"
       cy="172.87758"
       r="64.145416" /><path
       style="fill:#91aebd;fill-opacity:1;stroke-width:0.227373"
       d="m 38.909391,213.45817 c -1.817399,-0.39546 -3.845631,-1.90877 -7.879248,-4.02199 -3.006658,-1.57519 -2.983454,-1.20527 -5.081178,-2.46295 -0.514194,-0.30829 -3.368318,-2.00804 -4.451306,-2.78781 -2.265008,-1.63086 -5.237538,-3.97761 -5.616612,-4.6716 -0.23972,-0.43888 4.609644,1.35572 6.811618,0.98714 3.102389,-0.51875 4.804737,-1.0651 6.458402,-2.07274 2.259009,-1.3765 3.192605,-1.32314 6.990443,0.3996 1.093523,0.49604 2.215336,0.8691 2.492919,0.82905 0.594285,-0.0858 2.003074,-1.85532 2.773236,-3.48342 0.870071,-1.83932 1.245476,-4.07086 1.538622,-9.14594 0.205801,-3.56294 0.213518,-5.72464 0.03034,-8.5024 l -0.245598,-3.72471 0.940703,-0.77701 c 2.115315,-1.74723 5.611095,-5.47238 6.694667,-7.13393 2.12433,-3.25745 2.680888,-5.68535 1.973202,-8.60788 -0.347836,-1.43643 -0.52899,-1.49929 -1.44948,-2.42768 -1.233875,-1.24447 -1.800697,-1.99066 -0.0039,-0.80777 0.672185,0.44251 2.143285,1.09447 3.923025,3.70538 l 1.512837,2.21936 v 25.70526 25.70525 l -0.511588,0.12831 c -0.281373,0.0705 -2.431973,0.38861 -4.779111,0.70677 -4.79677,0.6502 -9.786632,0.74957 -12.122082,0.24139 z m -23.531622,-14.38534 -0.551222,-0.62527 0.625273,0.55122 c 0.3439,0.30317 0.490568,0.53371 0.490568,0.57444 0,0.17833 -0.04941,0.084 -0.564619,-0.50039 z"
       id="path250"
       sodipodi:nodetypes="csssscsssssscsssssscccssccscsss" /><path
       style="fill:#000000;stroke-width:0.227373"
       id="path248"
       d="" /><path
       style="fill:#a3c2d5;fill-opacity:1;stroke-width:0.227373"
       d="m 17.829577,200.90378 c -0.411567,-0.0979 -1.473766,-0.84129 -2.448207,-1.71342 l -1.72122,-1.54048 0.484741,-0.82126 c 1.415914,-2.39883 4.608949,-8.60185 5.397028,-10.48463 0.712292,-1.70171 1.177053,-3.51091 2.190338,-8.52649 1.430488,-7.08058 1.454903,-7.14303 3.86797,-9.89075 3.717213,-4.23273 4.188651,-5.64061 4.682398,-13.98345 0.140627,-2.37606 0.446234,-3.81595 0.57276,-4.67809 0.06812,-0.66522 3.958356,-7.92984 3.958356,-8.95714 0,-0.19153 0.08478,-0.49178 0.14588,-0.49178 0.0611,0 1.053,0.70628 2.148646,1.47727 1.095655,0.77098 1.935873,1.48546 1.965186,1.50455 0.0293,0.0191 0.225378,0.84876 0.427707,1.84073 0.797644,3.9107 2.617829,5.97674 7.608183,8.28705 2.626623,1.216 2.519651,1.36232 2.839495,1.75907 0.02872,0.0357 0.406339,0.56772 0.993808,1.16024 0.917534,0.92542 1.216437,1.23517 1.521154,2.73956 0.462018,2.281 0.118988,5.33587 -2.005342,8.59332 -1.086287,1.6657 -4.59299,5.40088 -6.697554,7.13393 l -0.943582,0.77701 0.193572,2.27373 c 0.410063,4.81648 0.110617,12.89689 -0.60244,16.25719 -0.650237,3.06421 -2.655743,6.36645 -3.866449,6.36645 -0.306011,0 -1.244651,-0.3466 -2.085865,-0.77023 -1.76063,-0.88664 -3.689034,-1.50376 -4.696363,-1.50291 -0.383731,2.2e-4 -1.260446,0.33538 -1.948246,0.74458 -2.202567,1.31038 -3.542607,1.77266 -6.707515,2.31398 -2.164591,0.37022 -4.072224,0.41795 -5.274439,0.13197 z"
       id="path1876"
       sodipodi:nodetypes="sscssssscssssssssssscsssscsss" /><path
       style="fill:#cce0ed;fill-opacity:1;stroke-width:0.227373"
       d="m 61.903956,194.18264 c 0,-13.01974 0.06546,-17.19491 0.272848,-17.4023 0.175094,-0.17509 1.071181,-0.27285 2.501107,-0.27285 h 2.228259 v 10.11812 c 0,5.56496 0.07995,10.11811 0.177654,10.11811 0.09771,0 1.501246,-2.97088 3.118969,-6.60196 l 2.941315,-6.60196 1.919428,0.065 1.919427,0.065 2.741639,6.65067 c 1.507901,3.65787 2.821752,6.65066 2.919671,6.65066 0.09792,0 0.177822,-4.62988 0.177568,-10.28863 l -4.56e-4,-10.28865 2.512671,0.0712 c 2.442677,0.0693 2.51867,0.0871 2.728931,0.64008 0.129695,0.34115 0.216267,7.29779 0.216267,17.37967 v 16.81082 l -2.216878,-0.004 -2.216892,-0.004 -4.251359,-9.26142 c -2.338248,-5.09377 -4.380793,-9.26141 -4.538987,-9.26141 -0.158198,0 -2.196682,4.14388 -4.529966,9.20862 l -4.242337,9.20862 -2.189439,0.065 -2.18944,0.0651 z m 29.38656,-0.10958 0.05827,-17.22255 0.828143,-0.2713 c 0.476629,-0.15614 1.3544,-0.21698 2.067982,-0.14333 l 1.239847,0.12797 4.298469,9.32274 c 2.364153,5.12751 4.400783,9.29166 4.525833,9.25368 0.12506,-0.038 2.1596,-4.2459 4.52121,-9.35092 l 4.29383,-9.28186 h 1.75317 c 1.40967,0 1.82688,0.0815 2.12946,0.41581 0.34308,0.3791 0.3763,1.9147 0.3763,17.39406 v 16.97825 h -2.50111 -2.5011 v -10.83812 c 0,-5.96097 -0.0675,-10.77062 -0.15002,-10.68812 -0.0825,0.0825 -1.35016,2.88773 -2.81701,6.23382 l -2.667,6.08381 -2.4229,0.0646 -2.4229,0.0646 -2.814011,-5.74898 -2.814021,-5.74897 -0.01779,10.28865 -0.01779,10.28864 H 93.734839 91.232303 Z M 62.813449,150.58693 c 0,-23.10907 -0.330227,-20.69097 2.825665,-20.69097 3.172751,0 2.858669,-2.28918 2.858669,20.83532 v 19.63713 h -2.842167 -2.842167 z m 14.067628,19.43304 c -2.470714,-0.77805 -4.522117,-2.82441 -4.963696,-4.95149 -0.173972,-0.83802 -0.232374,-5.70477 -0.187636,-15.63667 l 0.06495,-14.41995 0.524876,-1.06557 c 0.627384,-1.27367 1.864111,-2.43998 3.502838,-3.3034 l 1.201873,-0.63324 h 5.911707 c 5.836453,0 5.925672,0.007 7.009854,0.56095 1.289879,0.65888 2.526942,1.95427 3.125876,3.27325 0.322837,0.71096 0.428349,1.48193 0.432122,3.15753 l 0.0052,2.21688 h -2.72848 -2.72848 l -0.0017,-0.96633 c -0.0017,-1.60835 -0.401263,-2.64645 -1.206375,-3.13736 -0.636776,-0.38828 -1.160299,-0.44218 -4.302537,-0.44292 l -3.577449,-8.5e-4 -0.742549,0.66347 -0.742551,0.66347 v 14.13444 14.13446 l 0.742551,0.66347 0.742549,0.66346 3.577544,-0.003 c 2.399584,-0.003 3.764708,-0.0969 4.14596,-0.28737 0.778953,-0.38922 1.363467,-1.65319 1.363888,-2.94934 l 3.52e-4,-1.08003 h 2.72848 2.72848 v 2.1154 c 0,1.81544 -0.08276,2.28151 -0.583723,3.28679 -0.643311,1.29095 -1.65198,2.28301 -3.117411,3.06607 -0.91114,0.48687 -1.237844,0.51545 -6.416963,0.56136 -4.254981,0.0377 -5.688834,-0.0247 -6.509661,-0.28313 z m 24.844303,-0.10663 c -1.828473,-0.65774 -3.50706,-2.0299 -4.210784,-3.44211 l -0.595161,-1.19432 v -15.1634 -15.16341 l 0.636685,-1.21875 c 0.741528,-1.41945 2.298618,-2.70715 4.08984,-3.38226 1.1146,-0.42009 1.7652,-0.45313 8.92441,-0.45313 h 7.72216 v 2.38742 2.38742 l -6.99173,0.003 c -7.69838,0.003 -7.85655,0.029 -8.52615,1.36405 -0.34431,0.68651 -0.39759,1.50044 -0.3979,6.07907 l -3.6e-4,5.28643 h 7.27595 7.27595 v 2.38742 2.38742 h -7.27595 -7.27595 v 5.57796 c 0,5.98655 0.1163,6.73285 1.16345,7.4663 0.462,0.3236 1.43422,0.37077 7.64103,0.37077 h 7.11166 v 2.38742 2.38742 l -7.67385,-0.009 c -6.99467,-0.008 -7.78178,-0.047 -8.8933,-0.44686 z M 54.62801,158.72767 c -0.937915,-1.24141 -2.165732,-2.59436 -2.72848,-3.00655 -0.562749,-0.41217 -2.704753,-1.60365 -4.760008,-2.6477 -5.323963,-2.70453 -6.782758,-4.30442 -7.628715,-8.3666 -0.191704,-0.92053 -0.401537,-1.75943 -0.466296,-1.86422 -0.06476,-0.10478 -1.010218,-0.81158 -2.10102,-1.57067 l -1.983276,-1.38017 -0.168765,0.80873 c -0.328668,1.57499 -3.673498,8.96214 -3.938142,8.6975 -0.05472,-0.0547 0.482919,-3.17314 1.194762,-6.9298 l 1.294258,-6.8303 1.447293,-0.13515 c 2.326039,-0.21721 4.210037,-0.7782 8.924468,-2.65739 4.51776,-1.8008 7.651458,-2.88793 7.806598,-2.70826 0.254821,0.29512 2.759391,6.45521 3.765871,9.26229 l 1.165523,3.25067 -0.05938,9.16736 -0.05938,9.16738 z"
       id="path3297" /></g><g
     inkscape:groupmode="layer"
     id="layer2"
     inkscape:label="effect"><ellipse
       style="opacity:0.535884;fill:#daebfd;fill-opacity:0.202385;stroke-width:0.801354;-inkscape-stroke:none;filter:url(#filter4186);stop-color:#000000"
       id="path4156"
       clip-path="url(#clipPath4174)"
       inkscape:path-effect="#path-effect4178"
       sodipodi:type="arc"
       sodipodi:cx="74.799286"
       sodipodi:cy="67.822563"
       sodipodi:rx="60.863377"
       sodipodi:ry="67.631088"
       d="M 135.66266,67.822563 A 60.863377,67.631088 0 0 1 74.799286,135.45365 60.863377,67.631088 0 0 1 13.935909,67.822563 60.863377,67.631088 0 0 1 74.799286,0.19147491 60.863377,67.631088 0 0 1 135.66266,67.822563 Z" /></g></svg>
